<svg width="100" height="100" viewBox="0 0 100 100" xmlns="http://www.w3.org/2000/svg">
  <rect width="100" height="100" rx="15" fill="#5D5FEF" />
  
  <!-- Letter A -->
  <path d="M25 70L35 30H45L55 70H47L45 63H35L33 70H25ZM37 56H43L40 43L37 56Z" fill="#FFD166" />
  
  <!-- Letter B -->
  <path d="M60 30H75C78 30 80 31 82 32C84 33 85 36 85 39C85 44 82 47 79 48C83 49 86 52 86 58C86 61 85 64 83 66C81 68 78 70 75 70H60V30ZM68 46H73C74 46 75 46 76 45C77 44 77 43 77 42C77 41 77 40 76 39C75 38 74 38 73 38H68V46ZM68 62H74C75 62 76 62 77 61C78 60 78 59 78 57C78 56 78 55 77 54C76 53 75 53 74 53H68V62Z" fill="#F25F5C" />
  
  <!-- Letter C -->
  <path d="M15 50C15 45 16 41 18 38C20 35 22 33 25 31C28 29 32 28 36 28C39 28 42 29 44 30C46 31 48 33 50 35L45 40C43 38 41 37 39 36C37 35 35 35 32 35C30 35 28 36 26 37C24 38 22 40 21 42C20 44 19 47 19 50C19 53 20 56 21 58C22 60 24 62 26 63C28 64 30 65 32 65C35 65 37 64 39 63C41 62 43 61 45 59L50 65C48 67 46 69 44 70C42 71 39 72 36 72C32 72 28 71 25 69C22 67 20 65 18 62C16 59 15 55 15 50Z" fill="#06D6A0" />
</svg> 